<svg xmlns="http://www.w3.org/2000/svg" viewBox="0 0 128 128" width="128" height="128">
  <!-- MongoDB Leaf Icon -->
  <path fill="#4FAA41" d="M64 3.5c-1.3 18.6-8.6 31.2-19.4 43.2C33.8 58.6 28 72.5 28 87.5c0 22.1 16.1 37 36 37 19.9 0 36-14.9 36-37 0-15-5.8-28.9-16.6-40.8C72.6 34.7 65.3 22.1 64 3.5z"/>
  <path fill="#3F9B34" d="M64 3.5c-1.3 18.6-8.6 31.2-19.4 43.2C33.8 58.6 28 72.5 28 87.5c0 22.1 16.1 37 36 37V3.5z"/>
  <path fill="#2D7A2D" d="M62.5 112.5h3c0 0 0.5-8 1.5-12s-1-4-1.5-4.5-1.5-0.5-2 0-2 0.5-1.5 4.5 0.5 12 0.5 12z" opacity="0.5"/>
</svg>
